<?xml version="1.0" standalone="no"?>
<!DOCTYPE svg PUBLIC "-//W3C//DTD SVG 20010904//EN"
 "http://www.w3.org/TR/2001/REC-SVG-20010904/DTD/svg10.dtd">
<svg version="1.0" xmlns="http://www.w3.org/2000/svg"
 width="512.000000pt" height="512.000000pt" viewBox="0 0 512.000000 512.000000"
 preserveAspectRatio="xMidYMid meet">

<g transform="translate(0.000000,512.000000) scale(0.100000,-0.100000)"
fill="currentColor" stroke="none">
<path d="M3657 4845 c-135 -37 -50 43 -1769 -1673 -1068 -1067 -1612 -1617
-1622 -1641 -19 -44 -266 -1093 -266 -1130 0 -79 83 -160 163 -161 43 0 1099
246 1135 264 13 7 744 733 1626 1615 1142 1142 1612 1618 1637 1658 85 142 90
348 12 497 -18 34 -100 125 -246 273 -230 232 -270 263 -386 297 -66 19 -215
20 -284 1z m188 -326 c32 -9 76 -46 227 -197 103 -102 194 -200 203 -218 20
-44 19 -97 -4 -142 -11 -20 -150 -167 -310 -327 l-291 -290 -283 283 -282 282
300 299 c253 252 306 300 340 309 54 13 54 13 100 1z m-1562 -2561 l-1148
-1148 -364 -85 c-200 -47 -365 -84 -367 -83 -1 2 21 104 51 228 29 124 67 288
85 365 l32 140 1147 1147 1146 1148 282 -282 283 -283 -1147 -1147z"/>
<path d="M1799 557 c-63 -33 -91 -85 -86 -160 4 -61 22 -95 71 -131 27 -21 29
-21 1617 -24 1566 -2 1590 -2 1628 18 64 32 101 110 87 185 -9 48 -68 112
-114 125 -24 6 -574 10 -1598 10 l-1561 0 -44 -23z"/>
</g>
</svg>
